<svg xmlns="http://www.w3.org/2000/svg" xmlns:xlink="http://www.w3.org/1999/xlink" width="500" zoomAndPan="magnify" viewBox="0 0 375 374.999991" height="500" preserveAspectRatio="xMidYMid meet" version="1.0"><defs><g/><clipPath id="78f9308541"><path d="M 114.757812 34 L 260 34 L 260 202 L 114.757812 202 Z M 114.757812 34 " clip-rule="nonzero"/></clipPath></defs><rect x="-37.5" width="450" fill="#ffffff" y="-37.499999" height="449.999989" fill-opacity="1"/><rect x="-37.5" width="450" fill="#ffffff" y="-37.499999" height="449.999989" fill-opacity="1"/><rect x="-37.5" width="450" fill="#000000" y="-37.499999" height="449.999989" fill-opacity="1"/><g clip-path="url(#78f9308541)"><path fill="#ffffff" d="M 259.953125 140.253906 C 259.953125 140 259.851562 139.757812 259.671875 139.574219 L 235.429688 115.300781 L 254.261719 96.433594 C 254.398438 96.304688 254.484375 96.136719 254.519531 95.953125 L 259.929688 69.019531 C 259.9375 68.996094 259.898438 68.980469 259.898438 68.949219 C 259.9375 68.660156 259.890625 68.367188 259.671875 68.148438 L 226.378906 34.800781 C 226.023438 34.441406 225.390625 34.441406 225.03125 34.800781 L 190.058594 69.847656 L 155.085938 34.800781 C 154.726562 34.441406 154.09375 34.449219 153.738281 34.808594 L 120.449219 68.238281 C 120.339844 68.339844 120.339844 68.476562 120.296875 68.605469 C 120.273438 68.660156 120.195312 68.667969 120.179688 68.71875 L 114.773438 95.734375 C 114.710938 96.046875 114.800781 96.367188 115.03125 96.597656 L 139.1875 120.792969 L 120.441406 139.574219 C 120.339844 139.671875 120.332031 139.816406 120.289062 139.945312 C 120.265625 140 120.1875 140.007812 120.179688 140.070312 L 114.773438 167.082031 C 114.710938 167.394531 114.800781 167.714844 115.03125 167.945312 L 148.320312 201.292969 C 148.367188 201.335938 148.441406 201.328125 148.503906 201.367188 C 148.535156 201.390625 148.511719 201.4375 148.550781 201.460938 C 148.695312 201.535156 148.847656 201.574219 149 201.574219 C 149.089844 201.574219 149.183594 201.558594 149.273438 201.535156 C 149.335938 201.519531 149.335938 201.4375 149.386719 201.40625 C 149.480469 201.359375 149.59375 201.367188 149.667969 201.285156 L 184.613281 166.21875 L 219.632812 201.292969 C 219.675781 201.335938 219.753906 201.328125 219.8125 201.367188 C 219.84375 201.390625 219.820312 201.4375 219.859375 201.460938 C 220.003906 201.535156 220.15625 201.574219 220.308594 201.574219 C 220.402344 201.574219 220.492188 201.558594 220.582031 201.527344 C 220.636719 201.511719 220.636719 201.445312 220.683594 201.421875 C 220.78125 201.375 220.902344 201.375 220.980469 201.300781 L 254.269531 167.953125 C 254.40625 167.816406 254.492188 167.648438 254.527344 167.464844 L 259.9375 140.449219 C 259.945312 140.425781 259.90625 140.414062 259.90625 140.382812 C 259.90625 140.335938 259.953125 140.296875 259.953125 140.253906 Z M 252.714844 95.296875 L 234.089844 113.957031 L 224.695312 104.546875 L 257.445312 71.742188 Z M 150.554688 197.703125 L 155.285156 174.078125 L 172.21875 157.117188 L 188.542969 140.761719 L 183.796875 164.34375 Z M 252.714844 166.800781 L 221.847656 197.71875 L 224.820312 182.703125 L 226.511719 174.15625 L 257.445312 143.167969 Z M 225.632812 172.324219 L 190.730469 137.359375 C 190.730469 137.359375 190.730469 137.359375 190.722656 137.359375 L 190.628906 137.269531 C 190.449219 137.101562 190.210938 137.007812 189.976562 137.007812 C 189.730469 137.007812 189.488281 137.109375 189.304688 137.285156 L 154.398438 172.25 L 122.457031 140.253906 L 141.207031 121.480469 C 141.207031 121.480469 141.214844 121.480469 141.214844 121.480469 L 157.363281 105.300781 C 157.738281 104.929688 157.738281 104.324219 157.363281 103.953125 L 122.464844 68.910156 L 154.40625 36.832031 L 189.386719 71.878906 C 189.746094 72.238281 190.378906 72.238281 190.738281 71.878906 L 225.71875 36.832031 L 257.660156 68.828125 L 246.605469 79.90625 L 222.6875 103.867188 C 222.496094 104.050781 222.398438 104.304688 222.398438 104.546875 C 222.398438 104.792969 222.488281 105.035156 222.679688 105.21875 L 233.417969 115.976562 C 233.417969 115.984375 233.417969 115.984375 233.417969 115.984375 L 257.652344 140.253906 Z M 225.632812 172.324219 " fill-opacity="1" fill-rule="nonzero"/></g><path fill="#8c52ff" d="M 222.398438 104.546875 C 222.398438 104.304688 222.488281 104.058594 222.679688 103.867188 L 246.597656 79.90625 L 257.652344 68.828125 L 225.710938 36.832031 L 190.738281 71.878906 C 190.378906 72.238281 189.746094 72.238281 189.386719 71.878906 L 154.40625 36.832031 L 122.464844 68.910156 L 157.371094 103.953125 C 157.746094 104.324219 157.746094 104.929688 157.371094 105.300781 L 141.222656 121.480469 C 141.222656 121.480469 141.214844 121.480469 141.214844 121.480469 L 122.464844 140.253906 L 154.40625 172.25 L 189.3125 137.285156 C 189.496094 137.109375 189.738281 137.007812 189.984375 137.007812 C 190.21875 137.007812 190.453125 137.101562 190.636719 137.269531 L 190.730469 137.359375 C 190.730469 137.359375 190.730469 137.359375 190.738281 137.359375 L 225.640625 172.324219 L 257.660156 140.253906 L 233.425781 115.984375 C 233.425781 115.984375 233.425781 115.984375 233.425781 115.976562 L 222.6875 105.21875 C 222.496094 105.035156 222.398438 104.792969 222.398438 104.546875 Z M 222.398438 104.546875 " fill-opacity="1" fill-rule="nonzero"/><g fill="#ffffff" fill-opacity="1"><g transform="translate(47.24407, 281.407969)"><g><path d="M 10.625 0 L 3.296875 -7.328125 L 3.296875 -41.328125 L 10.625 -48.65625 L 37.828125 -48.65625 L 45.15625 -41.328125 L 45.15625 -32.34375 L 33.140625 -32.40625 L 33.140625 -36.96875 L 30.765625 -39.28125 L 18.015625 -39.28125 L 15.640625 -36.96875 L 15.640625 -11.75 L 18.015625 -9.375 L 28.390625 -9.375 L 34.71875 -14.984375 L 34.71875 -16.703125 L 25.8125 -16.703125 L 25.8125 -26.140625 L 45.875 -26.140625 L 45.875 0 L 35.453125 0 L 35.453125 -4.359375 L 30.5625 0 Z M 10.625 0 "/></g></g></g><g fill="#ffffff" fill-opacity="1"><g transform="translate(107.97748, 281.407969)"><g><path d="M 0 0 L 14.265625 -48.65625 L 34.328125 -48.65625 L 48.59375 0 L 35.515625 0 L 33.078125 -9.703125 L 15.515625 -9.703125 L 13.078125 0 Z M 17.953125 -19.203125 L 30.625 -19.203125 L 25.484375 -39.34375 L 23.109375 -39.34375 Z M 17.953125 -19.203125 "/></g></g></g><g fill="#ffffff" fill-opacity="1"><g transform="translate(163.297904, 281.407969)"><g><path d="M 4.625 0 L 4.625 -48.65625 L 16.703125 -48.65625 L 29.25 -19.078125 L 41.78125 -48.65625 L 53.796875 -48.65625 L 53.796875 0 L 42.3125 0 L 42.3125 -26.734375 L 32.15625 -2.109375 L 26.34375 -2.109375 L 16.109375 -26.734375 L 16.109375 0 Z M 4.625 0 "/></g></g></g><g fill="#ffffff" fill-opacity="1"><g transform="translate(228.454101, 281.407969)"><g><path d="M 4.625 0 L 4.625 -48.65625 L 41.59375 -48.65625 L 41.59375 -38.625 L 16.96875 -38.625 L 16.96875 -29.640625 L 39.140625 -29.640625 L 39.140625 -20.328125 L 16.96875 -20.328125 L 16.96875 -10.03125 L 41.59375 -10.03125 L 41.59375 0 Z M 4.625 0 "/></g></g></g><g fill="#ffffff" fill-opacity="1"><g transform="translate(280.077855, 281.407969)"><g><path d="M 4.890625 0 L 4.890625 -9.90625 L 30.234375 -9.90625 L 32.546875 -12.21875 L 32.546875 -17.625 L 30.234375 -19.9375 L 10.296875 -19.9375 L 2.96875 -27.328125 L 2.96875 -41.328125 L 10.296875 -48.65625 L 42.125 -48.65625 L 42.125 -38.75 L 17.421875 -38.75 L 15.125 -36.4375 L 15.125 -32.15625 L 17.421875 -29.84375 L 37.359375 -29.84375 L 44.6875 -22.515625 L 44.6875 -7.328125 L 37.359375 0 Z M 4.890625 0 "/></g></g></g><g fill="#ffffff" fill-opacity="1"><g transform="translate(144.956368, 333.755517)"><g><path d="M 2.390625 0 L 2.390625 -25.15625 L 8.765625 -25.15625 L 8.765625 -15.796875 L 17.328125 -15.796875 L 17.328125 -25.15625 L 23.71875 -25.15625 L 23.71875 0 L 17.328125 0 L 17.328125 -10.8125 L 8.765625 -10.8125 L 8.765625 0 Z M 2.390625 0 "/></g></g></g><g fill="#ffffff" fill-opacity="1"><g transform="translate(174.537655, 333.755517)"><g><path d="M 5.9375 0 L 2.21875 -3.78125 L 2.21875 -25.15625 L 8.59375 -25.15625 L 8.59375 -6.046875 L 9.796875 -4.84375 L 16.71875 -4.84375 L 17.921875 -6.046875 L 17.921875 -25.15625 L 24.296875 -25.15625 L 24.296875 -3.78125 L 20.515625 0 Z M 5.9375 0 "/></g></g></g><g fill="#ffffff" fill-opacity="1"><g transform="translate(204.528364, 333.755517)"><g><path d="M 2.390625 0 L 2.390625 -25.15625 L 19.171875 -25.15625 L 22.96875 -21.359375 L 22.96875 -15.328125 L 21.265625 -13.578125 L 23.953125 -11.0625 L 23.953125 -3.78125 L 20.171875 0 Z M 8.765625 -15.390625 L 15.65625 -15.390625 L 16.859375 -16.578125 L 16.859375 -19.109375 L 15.65625 -20.296875 L 8.765625 -20.296875 Z M 8.765625 -4.84375 L 16.375 -4.84375 L 17.578125 -6.046875 L 17.578125 -9.765625 L 16.375 -10.953125 L 8.765625 -10.953125 Z M 8.765625 -4.84375 "/></g></g></g></svg>