<svg xmlns="http://www.w3.org/2000/svg" xmlns:xlink="http://www.w3.org/1999/xlink" width="500" zoomAndPan="magnify" viewBox="0 0 375 374.999991" height="500" preserveAspectRatio="xMidYMid meet" version="1.0"><defs><g/><clipPath id="95b40030e5"><path d="M 116.847656 38 L 257.847656 38 L 257.847656 201 L 116.847656 201 Z M 116.847656 38 " clip-rule="nonzero"/></clipPath></defs><rect x="-37.5" width="450" fill="#ffffff" y="-37.499999" height="449.999989" fill-opacity="1"/><rect x="-37.5" width="450" fill="#ffffff" y="-37.499999" height="449.999989" fill-opacity="1"/><rect x="-37.5" width="450" fill="#ffffff" y="-37.499999" height="449.999989" fill-opacity="1"/><g clip-path="url(#95b40030e5)"><path fill="#000000" d="M 257.550781 140.722656 C 257.550781 140.476562 257.453125 140.242188 257.277344 140.0625 L 233.789062 116.542969 L 252.035156 98.265625 C 252.167969 98.140625 252.25 97.976562 252.289062 97.800781 L 257.527344 71.699219 C 257.535156 71.675781 257.5 71.664062 257.5 71.632812 C 257.535156 71.351562 257.492188 71.070312 257.277344 70.855469 L 225.015625 38.546875 C 224.671875 38.199219 224.058594 38.199219 223.710938 38.546875 L 189.820312 72.503906 L 155.925781 38.546875 C 155.582031 38.199219 154.96875 38.207031 154.621094 38.554688 L 122.359375 70.945312 C 122.257812 71.042969 122.257812 71.175781 122.214844 71.300781 C 122.191406 71.351562 122.117188 71.359375 122.101562 71.410156 L 116.859375 97.585938 C 116.800781 97.890625 116.890625 98.199219 117.113281 98.421875 L 140.519531 121.867188 L 122.351562 140.0625 C 122.257812 140.160156 122.25 140.300781 122.207031 140.425781 C 122.183594 140.476562 122.109375 140.484375 122.101562 140.542969 L 116.859375 166.71875 C 116.800781 167.023438 116.890625 167.332031 117.113281 167.554688 L 149.371094 199.867188 C 149.417969 199.910156 149.488281 199.902344 149.550781 199.941406 C 149.578125 199.960938 149.554688 200.007812 149.59375 200.027344 C 149.734375 200.101562 149.882812 200.140625 150.027344 200.140625 C 150.117188 200.140625 150.207031 200.125 150.292969 200.101562 C 150.355469 200.085938 150.355469 200.007812 150.40625 199.976562 C 150.496094 199.933594 150.605469 199.941406 150.679688 199.859375 L 184.539062 165.882812 L 218.476562 199.867188 C 218.519531 199.910156 218.59375 199.902344 218.652344 199.941406 C 218.683594 199.960938 218.660156 200.007812 218.699219 200.027344 C 218.839844 200.101562 218.984375 200.140625 219.132812 200.140625 C 219.222656 200.140625 219.3125 200.125 219.398438 200.09375 C 219.453125 200.082031 219.453125 200.015625 219.496094 199.992188 C 219.589844 199.945312 219.710938 199.945312 219.785156 199.875 L 252.042969 167.5625 C 252.175781 167.429688 252.257812 167.265625 252.292969 167.089844 L 257.535156 140.914062 C 257.542969 140.890625 257.507812 140.878906 257.507812 140.847656 C 257.507812 140.804688 257.550781 140.765625 257.550781 140.722656 Z M 250.539062 97.164062 L 232.488281 115.242188 L 223.386719 106.125 L 255.121094 74.339844 Z M 151.535156 196.390625 L 156.121094 173.5 L 172.53125 157.0625 L 188.351562 141.21875 L 183.75 164.066406 Z M 250.539062 166.445312 L 220.625 196.40625 L 223.503906 181.855469 L 225.144531 173.574219 L 255.121094 143.546875 Z M 224.292969 171.796875 L 190.46875 137.917969 C 190.46875 137.917969 190.46875 137.917969 190.460938 137.917969 L 190.371094 137.832031 C 190.195312 137.667969 189.964844 137.578125 189.738281 137.578125 C 189.5 137.578125 189.265625 137.675781 189.089844 137.84375 L 155.261719 171.722656 L 124.308594 140.722656 L 142.476562 122.53125 C 142.476562 122.53125 142.484375 122.53125 142.484375 122.53125 L 158.132812 106.859375 C 158.496094 106.496094 158.496094 105.910156 158.132812 105.550781 L 124.316406 71.597656 L 155.269531 40.511719 L 189.167969 74.472656 C 189.515625 74.820312 190.128906 74.820312 190.476562 74.472656 L 224.375 40.511719 L 255.328125 71.515625 L 244.617188 82.25 L 221.4375 105.46875 C 221.253906 105.644531 221.15625 105.890625 221.15625 106.125 C 221.15625 106.363281 221.246094 106.597656 221.429688 106.777344 L 231.839844 117.203125 C 231.839844 117.210938 231.839844 117.210938 231.839844 117.210938 L 255.320312 140.722656 Z M 224.292969 171.796875 " fill-opacity="1" fill-rule="nonzero"/></g><path fill="#8c52ff" d="M 221.15625 106.125 C 221.15625 105.890625 221.246094 105.652344 221.429688 105.46875 L 244.609375 82.25 L 255.320312 71.515625 L 224.367188 40.511719 L 190.476562 74.472656 C 190.128906 74.820312 189.515625 74.820312 189.167969 74.472656 L 155.269531 40.511719 L 124.316406 71.597656 L 158.140625 105.550781 C 158.503906 105.910156 158.503906 106.496094 158.140625 106.859375 L 142.492188 122.53125 C 142.492188 122.53125 142.484375 122.53125 142.484375 122.53125 L 124.316406 140.722656 L 155.269531 171.722656 L 189.09375 137.84375 C 189.273438 137.675781 189.507812 137.578125 189.746094 137.578125 C 189.972656 137.578125 190.203125 137.667969 190.378906 137.832031 L 190.46875 137.917969 C 190.46875 137.917969 190.46875 137.917969 190.476562 137.917969 L 224.300781 171.796875 L 255.328125 140.722656 L 231.847656 117.210938 C 231.847656 117.210938 231.847656 117.210938 231.847656 117.203125 L 221.4375 106.777344 C 221.253906 106.597656 221.15625 106.363281 221.15625 106.125 Z M 221.15625 106.125 " fill-opacity="1" fill-rule="nonzero"/><g fill="#000000" fill-opacity="1"><g transform="translate(51.250308, 275.590257)"><g><path d="M 10.328125 0 L 3.203125 -7.125 L 3.203125 -40.140625 L 10.328125 -47.265625 L 36.75 -47.265625 L 43.859375 -40.140625 L 43.859375 -31.421875 L 32.1875 -31.484375 L 32.1875 -35.90625 L 29.875 -38.15625 L 17.5 -38.15625 L 15.203125 -35.90625 L 15.203125 -11.421875 L 17.5 -9.109375 L 27.578125 -9.109375 L 33.734375 -14.5625 L 33.734375 -16.21875 L 25.078125 -16.21875 L 25.078125 -25.390625 L 44.5625 -25.390625 L 44.5625 0 L 34.4375 0 L 34.4375 -4.234375 L 29.6875 0 Z M 10.328125 0 "/></g></g></g><g fill="#000000" fill-opacity="1"><g transform="translate(110.247772, 275.590257)"><g><path d="M 0 0 L 13.84375 -47.265625 L 33.34375 -47.265625 L 47.203125 0 L 34.5 0 L 32.125 -9.421875 L 15.0625 -9.421875 L 12.703125 0 Z M 17.4375 -18.65625 L 29.75 -18.65625 L 24.75 -38.21875 L 22.4375 -38.21875 Z M 17.4375 -18.65625 "/></g></g></g><g fill="#000000" fill-opacity="1"><g transform="translate(163.986894, 275.590257)"><g><path d="M 4.484375 0 L 4.484375 -47.265625 L 16.21875 -47.265625 L 28.40625 -18.53125 L 40.59375 -47.265625 L 52.265625 -47.265625 L 52.265625 0 L 41.109375 0 L 41.109375 -25.96875 L 31.234375 -2.046875 L 25.578125 -2.046875 L 15.640625 -25.96875 L 15.640625 0 Z M 4.484375 0 "/></g></g></g><g fill="#000000" fill-opacity="1"><g transform="translate(227.280834, 275.590257)"><g><path d="M 4.484375 0 L 4.484375 -47.265625 L 40.40625 -47.265625 L 40.40625 -37.515625 L 16.484375 -37.515625 L 16.484375 -28.796875 L 38.03125 -28.796875 L 38.03125 -19.75 L 16.484375 -19.75 L 16.484375 -9.75 L 40.40625 -9.75 L 40.40625 0 Z M 4.484375 0 "/></g></g></g><g fill="#000000" fill-opacity="1"><g transform="translate(277.428869, 275.590257)"><g><path d="M 4.75 0 L 4.75 -9.625 L 29.375 -9.625 L 31.609375 -11.859375 L 31.609375 -17.125 L 29.375 -19.359375 L 10 -19.359375 L 2.890625 -26.546875 L 2.890625 -40.140625 L 10 -47.265625 L 40.90625 -47.265625 L 40.90625 -37.640625 L 16.921875 -37.640625 L 14.6875 -35.390625 L 14.6875 -31.234375 L 16.921875 -28.984375 L 36.296875 -28.984375 L 43.40625 -21.859375 L 43.40625 -7.125 L 36.296875 0 Z M 4.75 0 "/></g></g></g><g fill="#000000" fill-opacity="1"><g transform="translate(146.174587, 328.031363)"><g><path d="M 2.328125 0 L 2.328125 -24.4375 L 8.515625 -24.4375 L 8.515625 -15.34375 L 16.84375 -15.34375 L 16.84375 -24.4375 L 23.046875 -24.4375 L 23.046875 0 L 16.84375 0 L 16.84375 -10.515625 L 8.515625 -10.515625 L 8.515625 0 Z M 2.328125 0 "/></g></g></g><g fill="#000000" fill-opacity="1"><g transform="translate(174.913494, 328.031363)"><g><path d="M 5.765625 0 L 2.15625 -3.6875 L 2.15625 -24.4375 L 8.359375 -24.4375 L 8.359375 -5.875 L 9.515625 -4.703125 L 16.25 -4.703125 L 17.40625 -5.875 L 17.40625 -24.4375 L 23.609375 -24.4375 L 23.609375 -3.6875 L 19.921875 0 Z M 5.765625 0 "/></g></g></g><g fill="#000000" fill-opacity="1"><g transform="translate(204.050166, 328.031363)"><g><path d="M 2.328125 0 L 2.328125 -24.4375 L 18.640625 -24.4375 L 22.3125 -20.75 L 22.3125 -14.890625 L 20.65625 -13.203125 L 23.28125 -10.75 L 23.28125 -3.6875 L 19.59375 0 Z M 8.515625 -14.953125 L 15.21875 -14.953125 L 16.375 -16.109375 L 16.375 -18.5625 L 15.21875 -19.734375 L 8.515625 -19.734375 Z M 8.515625 -4.703125 L 15.921875 -4.703125 L 17.078125 -5.875 L 17.078125 -9.484375 L 15.921875 -10.640625 L 8.515625 -10.640625 Z M 8.515625 -4.703125 "/></g></g></g></svg>